<svg width="33" height="29" viewBox="0 0 33 29" fill="none" xmlns="http://www.w3.org/2000/svg">
<path d="M6.37156 18V17.83H7.18756C7.38023 17.83 7.53323 17.8017 7.64656 17.745C7.77123 17.677 7.86756 17.5693 7.93556 17.422C8.00356 17.2747 8.03756 17.065 8.03756 16.793V7.069C8.03756 6.797 8.00356 6.58733 7.93556 6.44C7.8789 6.29267 7.79956 6.19067 7.69756 6.134C7.6069 6.066 7.5049 6.032 7.39156 6.032H6.37156V5.862H10.4346L12.7976 15.96L15.2626 5.862H19.1386V6.032H18.4586C18.3566 6.032 18.2602 6.066 18.1696 6.134C18.0789 6.19067 18.0052 6.29267 17.9486 6.44C17.9032 6.576 17.8806 6.763 17.8806 7.001V16.861C17.8806 17.099 17.9032 17.2917 17.9486 17.439C17.9939 17.575 18.0676 17.677 18.1696 17.745C18.2716 17.8017 18.4132 17.83 18.5946 17.83H19.1386V18H14.2766V17.83H14.5146C14.7299 17.83 14.8942 17.796 15.0076 17.728C15.1209 17.66 15.2002 17.5467 15.2456 17.388C15.3022 17.218 15.3306 16.9857 15.3306 16.691V6.355L12.5086 18H11.0636L8.20756 6.593V16.708C8.20756 17.0367 8.24723 17.286 8.32656 17.456C8.4059 17.6147 8.5249 17.7167 8.68356 17.762C8.84223 17.8073 9.0349 17.83 9.26156 17.83H9.97556V18H6.37156Z" fill="url(#paint0_linear_15_23)"/>
<path d="M17.4876 23V22.81H18.0006C18.2539 22.81 18.4439 22.772 18.5706 22.696C18.7099 22.62 18.8049 22.487 18.8556 22.297C18.9062 22.0943 18.9316 21.803 18.9316 21.423V10.954C18.9316 10.5867 18.9062 10.308 18.8556 10.118C18.8176 9.928 18.7352 9.80133 18.6086 9.738C18.4819 9.662 18.3046 9.624 18.0766 9.624H17.4876V9.434H22.1426C23.6119 9.434 24.6886 9.76967 25.3726 10.441C26.0566 11.0997 26.3986 12.094 26.3986 13.424C26.3986 14.0067 26.3162 14.5577 26.1516 15.077C25.9869 15.5963 25.7272 16.0587 25.3726 16.464C25.0179 16.8693 24.5492 17.186 23.9666 17.414C23.3966 17.642 22.6872 17.756 21.8386 17.756H21.1356V21.499C21.1356 21.8537 21.1546 22.126 21.1926 22.316C21.2432 22.506 21.3319 22.639 21.4586 22.715C21.5852 22.7783 21.7626 22.81 21.9906 22.81H22.8646V23H17.4876ZM21.7626 17.566C22.2186 17.566 22.5986 17.4837 22.9026 17.319C23.2192 17.1417 23.4662 16.882 23.6436 16.54C23.8209 16.1853 23.9412 15.7547 24.0046 15.248C24.0806 14.7287 24.1186 14.127 24.1186 13.443C24.1186 12.5057 24.0489 11.7583 23.9096 11.201C23.7829 10.6437 23.5612 10.2447 23.2446 10.004C22.9279 9.75067 22.5036 9.624 21.9716 9.624H21.1356V17.566H21.7626Z" fill="url(#paint1_linear_15_23)"/>
<path d="M7.03156 23L9.03156 25.5C5.06836 22.9545 -3.85807 11.2727 4.37321 2L3.03156 5.5L6.28781 2.54545C-1.94346 11.8182 6.06836 21.9545 10.0316 24.5L7.03156 23Z" fill="#A99060" stroke="#968157" stroke-width="0.1"/>
<path d="M26.0316 23L24.0316 25.5C27.9948 22.9545 36.9212 11.2727 28.6899 2L30.0316 5.5L26.7753 2.54545C35.0066 11.8182 26.9948 21.9545 23.0316 24.5L26.0316 23Z" fill="#A99060" stroke="#968157" stroke-width="0.1"/>
<defs>
<linearGradient id="paint0_linear_15_23" x1="13.0316" y1="0" x2="13.0316" y2="19.9333" gradientUnits="userSpaceOnUse">
<stop stop-color="#F5CE84"/>
<stop offset="0.345945" stop-color="#F5CE84" stop-opacity="0.5"/>
<stop offset="0.73526" stop-color="#F5CE84"/>
<stop offset="1" stop-color="#F5CE84" stop-opacity="0.51"/>
</linearGradient>
<linearGradient id="paint1_linear_15_23" x1="22.0316" y1="3" x2="22.0316" y2="25.5333" gradientUnits="userSpaceOnUse">
<stop stop-color="#F5CE84"/>
<stop offset="0.345945" stop-color="#F5CE84" stop-opacity="0.5"/>
<stop offset="0.729167" stop-color="#F5CE84"/>
<stop offset="0.73526" stop-color="#F5CE84"/>
<stop offset="1" stop-color="#F5CE84" stop-opacity="0.51"/>
</linearGradient>
</defs>
</svg>
