<svg width="123" height="61" viewBox="0 0 123 61" fill="none" xmlns="http://www.w3.org/2000/svg">
<g filter="url(#filter0_d_14_9)">
<path d="M3.62 33V32.69H5.108C5.45933 32.69 5.73833 32.6383 5.945 32.535C6.17233 32.411 6.348 32.2147 6.472 31.946C6.596 31.6773 6.658 31.295 6.658 30.799V13.067C6.658 12.571 6.596 12.1887 6.472 11.92C6.36867 11.6513 6.224 11.4653 6.038 11.362C5.87267 11.238 5.68667 11.176 5.48 11.176H3.62V10.866H11.029L15.338 29.28L19.833 10.866H26.901V11.176H25.661C25.475 11.176 25.2993 11.238 25.134 11.362C24.9687 11.4653 24.8343 11.6513 24.731 11.92C24.6483 12.168 24.607 12.509 24.607 12.943V30.923C24.607 31.357 24.6483 31.7083 24.731 31.977C24.8137 32.225 24.948 32.411 25.134 32.535C25.32 32.6383 25.5783 32.69 25.909 32.69H26.901V33H18.035V32.69H18.469C18.8617 32.69 19.1613 32.628 19.368 32.504C19.5747 32.38 19.7193 32.1733 19.802 31.884C19.9053 31.574 19.957 31.1503 19.957 30.613V11.765L14.811 33H12.176L6.968 12.199V30.644C6.968 31.2433 7.04033 31.698 7.185 32.008C7.32967 32.2973 7.54667 32.4833 7.836 32.566C8.12533 32.6487 8.47667 32.69 8.89 32.69H10.192V33H3.62ZM37.9065 33.31C35.8812 33.31 34.1968 32.8347 32.8535 31.884C31.5308 30.9333 30.5388 29.6003 29.8775 27.885C29.2368 26.1697 28.9165 24.165 28.9165 21.871C28.9165 19.5563 29.2368 17.5517 29.8775 15.857C30.5388 14.1623 31.5412 12.85 32.8845 11.92C34.2278 10.99 35.9018 10.525 37.9065 10.525C39.8285 10.525 41.4405 10.99 42.7425 11.92C44.0652 12.85 45.0675 14.1623 45.7495 15.857C46.4522 17.5517 46.8035 19.5667 46.8035 21.902C46.8035 24.196 46.4522 26.2007 45.7495 27.916C45.0675 29.6107 44.0652 30.9333 42.7425 31.884C41.4198 32.8347 39.8078 33.31 37.9065 33.31ZM37.8755 33C38.6402 33 39.2705 32.8243 39.7665 32.473C40.2625 32.101 40.6655 31.5017 40.9755 30.675C41.2855 29.8277 41.5128 28.691 41.6575 27.265C41.8022 25.8183 41.8745 24.0307 41.8745 21.902C41.8745 19.794 41.8022 18.027 41.6575 16.601C41.5335 15.1543 41.3165 14.0177 41.0065 13.191C40.7172 12.3437 40.3142 11.7443 39.7975 11.393C39.3015 11.021 38.6815 10.835 37.9375 10.835C37.1522 10.835 36.5012 11.021 35.9845 11.393C35.4885 11.7443 35.0752 12.3437 34.7445 13.191C34.4345 14.0177 34.2072 15.144 34.0625 16.57C33.9178 17.996 33.8455 19.7733 33.8455 21.902C33.8455 24.0307 33.9178 25.8183 34.0625 27.265C34.2072 28.691 34.4345 29.8277 34.7445 30.675C35.0545 31.5017 35.4678 32.101 35.9845 32.473C36.5012 32.8243 37.1315 33 37.8755 33ZM49.4528 12.602C49.3701 12.23 49.2668 11.9407 49.1428 11.734C49.0188 11.5273 48.8638 11.3827 48.6778 11.3C48.4918 11.2173 48.2541 11.176 47.9648 11.176H47.5928V10.866H56.4588V11.176H55.2498C54.8158 11.176 54.5264 11.238 54.3818 11.362C54.2578 11.486 54.1958 11.6927 54.1958 11.982C54.1958 12.106 54.2061 12.261 54.2268 12.447C54.2474 12.633 54.2784 12.8397 54.3198 13.067C54.3611 13.2943 54.4128 13.532 54.4748 13.78L57.0788 24.475C57.1408 24.7643 57.2338 25.1983 57.3578 25.777C57.5024 26.3557 57.6471 26.986 57.7918 27.668C57.9364 28.35 58.0708 28.9907 58.1948 29.59C58.3188 30.1687 58.4014 30.6027 58.4428 30.892C58.5874 30.2927 58.7218 29.7347 58.8458 29.218C58.9698 28.7013 59.1041 28.133 59.2488 27.513C59.4141 26.893 59.6104 26.1283 59.8378 25.219L62.2868 15.206C62.4314 14.6273 62.5348 14.152 62.5968 13.78C62.6794 13.3873 62.7414 13.0567 62.7828 12.788C62.8241 12.5193 62.8448 12.2713 62.8448 12.044C62.8448 11.7133 62.7208 11.486 62.4728 11.362C62.2454 11.238 61.8114 11.176 61.1708 11.176H60.3028V10.866H65.7278V11.176H65.0768C64.6841 11.176 64.3638 11.2277 64.1158 11.331C63.8884 11.4137 63.7024 11.5687 63.5578 11.796C63.4338 12.0027 63.3201 12.292 63.2168 12.664L58.2568 33H54.9398L49.4528 12.602ZM66.3466 33V32.69H67.6486C67.9172 32.69 68.1239 32.6383 68.2686 32.535C68.4339 32.4317 68.5476 32.256 68.6096 32.008C68.6716 31.7393 68.7026 31.3777 68.7026 30.923V13.067C68.7026 12.571 68.6716 12.1887 68.6096 11.92C68.5476 11.6513 68.4339 11.4653 68.2686 11.362C68.1239 11.238 67.9172 11.176 67.6486 11.176H66.3466V10.866H75.8016V11.176H74.4686C74.1999 11.176 73.9829 11.238 73.8176 11.362C73.6729 11.4653 73.5592 11.6513 73.4766 11.92C73.4146 12.1887 73.3836 12.571 73.3836 13.067V30.892C73.3836 31.3467 73.4146 31.7083 73.4766 31.977C73.5592 32.2457 73.6729 32.4317 73.8176 32.535C73.9829 32.6383 74.1999 32.69 74.4686 32.69H75.8016V33H66.3466ZM77.0028 33V32.69H78.2738C78.5011 32.69 78.6975 32.6177 78.8628 32.473C79.0281 32.3283 79.1521 32.1217 79.2348 31.853C79.3175 31.5637 79.3588 31.202 79.3588 30.768V13.036C79.3588 12.54 79.3071 12.168 79.2038 11.92C79.1005 11.6513 78.9558 11.4653 78.7698 11.362C78.5838 11.238 78.3565 11.176 78.0878 11.176H77.0028V10.866H85.6828C87.6461 10.866 89.3305 11.269 90.7358 12.075C92.1411 12.8603 93.2158 14.0487 93.9598 15.64C94.7245 17.2107 95.1068 19.174 95.1068 21.53C95.1068 23.7827 94.7451 25.777 94.0218 27.513C93.3191 29.2283 92.2651 30.5717 90.8598 31.543C89.4751 32.5143 87.7495 33 85.6828 33H77.0028ZM85.1248 32.69C86.3235 32.69 87.2845 32.318 88.0078 31.574C88.7518 30.8093 89.2891 29.6107 89.6198 27.978C89.9505 26.3247 90.1158 24.1443 90.1158 21.437C90.1158 19.019 89.9505 17.0557 89.6198 15.547C89.2891 14.0383 88.7518 12.9327 88.0078 12.23C87.2845 11.5273 86.3235 11.176 85.1248 11.176H84.0398V32.69H85.1248ZM96.0339 33V32.69H97.0259C97.4186 32.69 97.7389 32.628 97.9869 32.504C98.2349 32.3593 98.4519 32.1217 98.6379 31.791C98.8239 31.4603 98.9892 31.0057 99.1339 30.427L104.342 10.866H108.031L113.735 30.861C113.88 31.3157 114.024 31.6773 114.169 31.946C114.314 32.2147 114.479 32.411 114.665 32.535C114.872 32.6383 115.13 32.69 115.44 32.69H115.688V33H106.667V32.69H107.938C108.393 32.69 108.692 32.597 108.837 32.411C109.002 32.225 109.085 31.9667 109.085 31.636C109.085 31.4913 109.064 31.3363 109.023 31.171C109.002 30.985 108.961 30.799 108.899 30.613C108.858 30.427 108.816 30.241 108.775 30.055L107.504 24.909H100.932L99.6919 29.559C99.6092 29.869 99.5369 30.1583 99.4749 30.427C99.4336 30.6957 99.3922 30.9333 99.3509 31.14C99.3096 31.3467 99.2889 31.5327 99.2889 31.698C99.2889 32.0493 99.3716 32.3077 99.5369 32.473C99.7229 32.6177 100.002 32.69 100.374 32.69H102.11V33H96.0339ZM101.025 24.599H107.411L105.179 15.64C105.076 15.206 104.972 14.7927 104.869 14.4C104.786 14.0073 104.693 13.6147 104.59 13.222C104.507 12.8087 104.414 12.3747 104.311 11.92C104.249 12.2507 104.187 12.5607 104.125 12.85C104.063 13.1393 103.991 13.4287 103.908 13.718C103.846 13.9867 103.774 14.2553 103.691 14.524C103.629 14.7927 103.567 15.0717 103.505 15.361L101.025 24.599Z" fill="url(#paint0_linear_14_9)" shape-rendering="crispEdges"/>
</g>
<g filter="url(#filter1_d_14_9)">
<path d="M31.456 53V52.81H31.969C32.2223 52.81 32.4123 52.772 32.539 52.696C32.6783 52.62 32.7733 52.487 32.824 52.297C32.8747 52.0943 32.9 51.803 32.9 51.423V40.954C32.9 40.5867 32.8747 40.308 32.824 40.118C32.786 39.928 32.7037 39.8013 32.577 39.738C32.4503 39.662 32.273 39.624 32.045 39.624H31.456V39.434H36.111C37.5803 39.434 38.657 39.7697 39.341 40.441C40.025 41.0997 40.367 42.094 40.367 43.424C40.367 44.0067 40.2847 44.5577 40.12 45.077C39.9553 45.5963 39.6957 46.0587 39.341 46.464C38.9863 46.8693 38.5177 47.186 37.935 47.414C37.365 47.642 36.6557 47.756 35.807 47.756H35.104V51.499C35.104 51.8537 35.123 52.126 35.161 52.316C35.2117 52.506 35.3003 52.639 35.427 52.715C35.5537 52.7783 35.731 52.81 35.959 52.81H36.833V53H31.456ZM35.731 47.566C36.187 47.566 36.567 47.4837 36.871 47.319C37.1877 47.1417 37.4347 46.882 37.612 46.54C37.7893 46.1853 37.9097 45.7547 37.973 45.248C38.049 44.7287 38.087 44.127 38.087 43.443C38.087 42.5057 38.0173 41.7583 37.878 41.201C37.7513 40.6437 37.5297 40.2447 37.213 40.004C36.8963 39.7507 36.472 39.624 35.94 39.624H35.104V47.566H35.731ZM41.123 53V52.81H41.56C41.788 52.81 41.978 52.7783 42.13 52.715C42.282 52.6517 42.3897 52.5187 42.453 52.316C42.529 52.1133 42.567 51.8093 42.567 51.404V41.03C42.567 40.6247 42.529 40.3207 42.453 40.118C42.377 39.9153 42.2693 39.7823 42.13 39.719C41.9907 39.6557 41.8007 39.624 41.56 39.624H41.123V39.434H46.253V39.624H45.797C45.569 39.624 45.379 39.6557 45.227 39.719C45.075 39.7823 44.961 39.909 44.885 40.099C44.809 40.289 44.771 40.5803 44.771 40.973V52.81H47.222C47.83 52.81 48.3113 52.734 48.666 52.582C49.0333 52.43 49.2993 52.1767 49.464 51.822C49.6413 51.4673 49.749 50.9923 49.787 50.397L49.863 48.877H50.053L49.92 53H41.123ZM50.6322 53V52.81H51.2022C51.4429 52.81 51.6329 52.772 51.7722 52.696C51.9115 52.6073 52.0319 52.4617 52.1332 52.259C52.2472 52.0563 52.3549 51.7523 52.4562 51.347L55.6102 39.434H57.3012L60.7782 51.822C60.8542 52.0753 60.9302 52.278 61.0062 52.43C61.0949 52.5693 61.2025 52.6707 61.3292 52.734C61.4559 52.7847 61.6142 52.81 61.8042 52.81H61.9562V53H57.1492V52.81H57.8142C58.1309 52.81 58.3399 52.7593 58.4412 52.658C58.5425 52.5567 58.5932 52.411 58.5932 52.221C58.5932 52.1323 58.5805 52.031 58.5552 51.917C58.5425 51.803 58.5172 51.6827 58.4792 51.556C58.4412 51.4167 58.4032 51.2837 58.3652 51.157L57.5862 48.041H53.5392L52.7982 50.834C52.7475 51.024 52.7032 51.2077 52.6652 51.385C52.6272 51.5623 52.5892 51.7207 52.5512 51.86C52.5259 51.9993 52.5132 52.126 52.5132 52.24C52.5132 52.4427 52.5702 52.5883 52.6842 52.677C52.7982 52.7657 52.9945 52.81 53.2732 52.81H54.2042V53H50.6322ZM53.5962 47.851H57.5292L56.2372 42.721C56.1359 42.2903 56.0409 41.923 55.9522 41.619C55.8762 41.315 55.8065 41.0427 55.7432 40.802C55.6925 40.5487 55.6419 40.308 55.5912 40.08C55.5532 40.2953 55.5152 40.4917 55.4772 40.669C55.4392 40.8463 55.3949 41.0173 55.3442 41.182C55.3062 41.3467 55.2619 41.5177 55.2112 41.695C55.1732 41.8597 55.1225 42.0497 55.0592 42.265L53.5962 47.851ZM62.5192 53V52.715L68.5612 39.662H65.4642C64.8815 39.662 64.4255 39.7317 64.0962 39.871C63.7669 40.0103 63.5262 40.2383 63.3742 40.555C63.2222 40.8717 63.1335 41.296 63.1082 41.828L63.0702 42.873H62.8612L62.9752 39.434H70.9172V39.7L64.8942 52.772H68.6562C69.2009 52.772 69.6379 52.7023 69.9672 52.563C70.2965 52.4237 70.5372 52.1957 70.6892 51.879C70.8539 51.5623 70.9552 51.138 70.9932 50.606L71.0312 49.542H71.2212L71.1642 53H62.5192ZM71.9701 53V52.81H72.5401C72.7807 52.81 72.9707 52.772 73.1101 52.696C73.2494 52.6073 73.3697 52.4617 73.4711 52.259C73.5851 52.0563 73.6927 51.7523 73.7941 51.347L76.9481 39.434H78.6391L82.1161 51.822C82.1921 52.0753 82.2681 52.278 82.3441 52.43C82.4327 52.5693 82.5404 52.6707 82.6671 52.734C82.7937 52.7847 82.9521 52.81 83.1421 52.81H83.2941V53H78.4871V52.81H79.1521C79.4687 52.81 79.6777 52.7593 79.7791 52.658C79.8804 52.5567 79.9311 52.411 79.9311 52.221C79.9311 52.1323 79.9184 52.031 79.8931 51.917C79.8804 51.803 79.8551 51.6827 79.8171 51.556C79.7791 51.4167 79.7411 51.2837 79.7031 51.157L78.9241 48.041H74.8771L74.1361 50.834C74.0854 51.024 74.0411 51.2077 74.0031 51.385C73.9651 51.5623 73.9271 51.7207 73.8891 51.86C73.8637 51.9993 73.8511 52.126 73.8511 52.24C73.8511 52.4427 73.9081 52.5883 74.0221 52.677C74.1361 52.7657 74.3324 52.81 74.6111 52.81H75.5421V53H71.9701ZM74.9341 47.851H78.8671L77.5751 42.721C77.4737 42.2903 77.3787 41.923 77.2901 41.619C77.2141 41.315 77.1444 41.0427 77.0811 40.802C77.0304 40.5487 76.9797 40.308 76.9291 40.08C76.8911 40.2953 76.8531 40.4917 76.8151 40.669C76.7771 40.8463 76.7327 41.0173 76.6821 41.182C76.6441 41.3467 76.5997 41.5177 76.5491 41.695C76.5111 41.8597 76.4604 42.0497 76.3971 42.265L74.9341 47.851Z" fill="url(#paint1_linear_14_9)" shape-rendering="crispEdges"/>
</g>
<defs>
<filter id="filter0_d_14_9" x="0.62" y="8.5249" width="122.068" height="32.7852" filterUnits="userSpaceOnUse" color-interpolation-filters="sRGB">
<feFlood flood-opacity="0" result="BackgroundImageFix"/>
<feColorMatrix in="SourceAlpha" type="matrix" values="0 0 0 0 0 0 0 0 0 0 0 0 0 0 0 0 0 0 127 0" result="hardAlpha"/>
<feOffset dx="2" dy="3"/>
<feGaussianBlur stdDeviation="2.5"/>
<feComposite in2="hardAlpha" operator="out"/>
<feColorMatrix type="matrix" values="0 0 0 0 0 0 0 0 0 0 0 0 0 0 0 0 0 0 0.25 0"/>
<feBlend mode="normal" in2="BackgroundImageFix" result="effect1_dropShadow_14_9"/>
<feBlend mode="normal" in="SourceGraphic" in2="effect1_dropShadow_14_9" result="shape"/>
</filter>
<filter id="filter1_d_14_9" x="28.456" y="37.4341" width="61.8381" height="23.5659" filterUnits="userSpaceOnUse" color-interpolation-filters="sRGB">
<feFlood flood-opacity="0" result="BackgroundImageFix"/>
<feColorMatrix in="SourceAlpha" type="matrix" values="0 0 0 0 0 0 0 0 0 0 0 0 0 0 0 0 0 0 127 0" result="hardAlpha"/>
<feOffset dx="2" dy="3"/>
<feGaussianBlur stdDeviation="2.5"/>
<feComposite in2="hardAlpha" operator="out"/>
<feColorMatrix type="matrix" values="0 0 0 0 0 0 0 0 0 0 0 0 0 0 0 0 0 0 0.25 0"/>
<feBlend mode="normal" in2="BackgroundImageFix" result="effect1_dropShadow_14_9"/>
<feBlend mode="normal" in="SourceGraphic" in2="effect1_dropShadow_14_9" result="shape"/>
</filter>
<linearGradient id="paint0_linear_14_9" x1="59.5" y1="0" x2="59.5" y2="36.4" gradientUnits="userSpaceOnUse">
<stop stop-color="#F5CE84"/>
<stop offset="0.345945" stop-color="#F5CE84" stop-opacity="0.5"/>
<stop offset="0.73526" stop-color="#F5CE84"/>
<stop offset="1" stop-color="#F5CE84" stop-opacity="0.51"/>
</linearGradient>
<linearGradient id="paint1_linear_14_9" x1="57.5" y1="33" x2="57.5" y2="55.5333" gradientUnits="userSpaceOnUse">
<stop stop-color="#F5CE84"/>
<stop offset="0.345945" stop-color="#F5CE84" stop-opacity="0.5"/>
<stop offset="0.729167" stop-color="#F5CE84"/>
<stop offset="0.73526" stop-color="#F5CE84"/>
<stop offset="1" stop-color="#F5CE84" stop-opacity="0.51"/>
</linearGradient>
</defs>
</svg>
